<svg width="1152" height="534" viewBox="0 0 1152 534" fill="none" xmlns="http://www.w3.org/2000/svg">
<path d="M903.846 295.76C905.041 295.204 906.184 294.502 907.436 294.117C909.54 293.466 910.21 292.284 910.197 290.009C910.077 273.067 910.115 256.118 910.166 239.169C910.172 237.861 909.799 237.16 908.567 236.698C906.974 236.098 905.451 235.302 903.897 234.594C903.922 234.455 903.947 234.31 903.973 234.171C904.396 234.126 904.819 234.044 905.243 234.044C914.766 234.038 924.296 233.855 933.819 234.107C940.455 234.284 946.079 237.198 950.635 242.013C956.443 248.162 959.236 255.549 959.546 263.979C959.83 271.733 958.206 278.944 953.65 285.282C948.544 292.385 941.561 296.221 932.751 296.316C923.752 296.417 914.754 296.335 905.755 296.341C905.192 296.341 904.63 296.341 904.067 296.341C903.979 296.152 903.909 295.956 903.846 295.76ZM919.424 265.161C919.424 274.375 919.462 283.589 919.386 292.802C919.373 294.313 919.872 294.742 921.282 294.654C922.855 294.559 924.441 294.622 926.021 294.635C934.255 294.704 940.632 291.147 944.802 284.195C951.773 272.574 951.76 260.548 945.725 248.547C943.058 243.239 939.077 239.131 933.371 236.939C929.471 235.441 925.395 235.858 921.364 235.738C919.879 235.694 919.373 236.098 919.386 237.672C919.462 246.835 919.424 255.998 919.424 265.161Z" fill="white"/>
<path d="M1071.31 252.984C1071.31 260.984 1071.31 268.991 1071.31 276.991C1071.2 277.067 1071.09 277.143 1070.98 277.225C1070.6 276.833 1070.14 276.492 1069.84 276.043C1067.86 273.067 1065.86 270.097 1063.98 267.063C1063.34 266.027 1062.6 265.667 1061.41 265.717C1059.26 265.806 1057.1 265.743 1054.74 265.743C1054.71 266.368 1054.65 266.918 1054.65 267.468C1054.65 275.942 1054.68 284.423 1054.62 292.897C1054.6 294.307 1055.03 294.698 1056.4 294.673C1060.76 294.597 1065.14 294.616 1069.51 294.667C1070.64 294.679 1071.34 294.262 1072.01 293.39C1075.43 288.986 1078.89 284.613 1082.39 280.271C1082.76 279.816 1083.49 279.469 1084.08 279.424C1085.33 279.329 1086.6 279.481 1087.87 279.5C1088.82 279.519 1089.25 279.778 1088.81 280.84C1086.83 285.649 1084.92 290.483 1082.91 295.273C1082.71 295.754 1081.95 296.31 1081.45 296.31C1067.61 296.367 1053.76 296.354 1039.91 296.348C1039.67 296.348 1039.44 296.278 1039.04 295.842C1039.67 295.495 1040.28 295.09 1040.93 294.806C1045.23 292.954 1045.23 292.961 1045.23 288.303C1045.23 272.087 1045.19 255.872 1045.28 239.65C1045.29 237.861 1044.74 236.983 1043.12 236.433C1041.72 235.959 1040.42 235.232 1039.08 234.613C1039.11 234.462 1039.15 234.304 1039.18 234.152C1039.67 234.12 1040.15 234.057 1040.64 234.057C1054.48 234.051 1068.33 234.07 1082.18 234.025C1083.5 234.019 1083.94 234.398 1084.19 235.725C1084.92 239.7 1085.83 243.644 1086.74 247.581C1087.02 248.775 1086.72 249.179 1085.49 249.255C1080.94 249.527 1080.95 249.559 1078.56 245.685C1076.77 242.778 1074.98 239.865 1073.09 237.021C1072.71 236.452 1071.9 235.839 1071.28 235.827C1066.07 235.732 1060.85 235.776 1055.65 235.789C1055.39 235.789 1055.14 235.883 1054.77 235.953C1054.77 245.274 1054.77 254.564 1054.77 264.081C1057.43 264.081 1060.14 264.112 1062.86 264.036C1063.18 264.03 1063.56 263.468 1063.8 263.095C1065.82 260.08 1067.8 257.047 1069.82 254.026C1070.12 253.578 1070.52 253.192 1070.86 252.775C1071.01 252.845 1071.15 252.914 1071.31 252.984Z" fill="white"/>
<path d="M989.974 264.1C992.597 264.1 995.068 264.151 997.539 264.056C998.038 264.037 998.683 263.594 998.98 263.152C1001 260.207 1002.94 257.199 1004.92 254.229C1005.25 253.723 1005.66 253.268 1006.07 252.744C1006.77 253.818 1007.04 274.18 1006.41 277.377C1005.86 276.834 1005.4 276.511 1005.11 276.075C1003.1 273.055 1001.1 270.034 999.163 266.969C998.594 266.072 997.962 265.661 996.869 265.705C994.619 265.787 992.363 265.73 989.981 265.73C989.936 266.318 989.873 266.767 989.873 267.215C989.867 275.797 989.899 284.379 989.842 292.955C989.835 294.294 990.278 294.667 991.561 294.648C995.984 294.591 1000.41 294.673 1004.83 294.579C1005.59 294.56 1006.58 294.111 1007.06 293.523C1010.62 289.163 1014.05 284.708 1017.59 280.328C1017.99 279.835 1018.77 279.463 1019.4 279.406C1020.66 279.292 1021.93 279.45 1023.19 279.488C1024.05 279.507 1024.5 279.766 1024.11 280.739C1022.1 285.649 1020.14 290.578 1018.08 295.457C1017.89 295.893 1017.04 296.291 1016.49 296.304C1011.97 296.373 1007.43 296.342 1002.91 296.342C994.013 296.342 985.115 296.342 976.223 296.342C975.623 296.342 975.023 296.342 974.429 296.342C974.384 296.152 974.334 295.969 974.29 295.779C975.035 295.413 975.768 295.021 976.527 294.686C980.558 292.942 980.558 292.948 980.558 288.594C980.558 272.17 980.539 255.746 980.59 239.322C980.596 237.887 980.179 237.116 978.827 236.623C977.279 236.061 975.813 235.277 974.315 234.595C974.346 234.449 974.378 234.304 974.41 234.159C974.833 234.114 975.263 234.038 975.686 234.038C989.633 234.032 1003.59 234.045 1017.53 234.013C1018.66 234.013 1019.19 234.266 1019.42 235.492C1020.19 239.511 1021.08 243.511 1021.99 247.505C1022.27 248.763 1021.92 249.18 1020.63 249.243C1016.16 249.458 1016.16 249.496 1013.82 245.704C1012.03 242.797 1010.27 239.871 1008.36 237.04C1007.94 236.421 1006.99 235.821 1006.27 235.808C1001.32 235.7 996.37 235.764 991.422 235.745C990.467 235.738 989.842 235.839 989.848 237.084C989.892 245.824 989.873 254.564 989.873 263.297C989.867 263.519 989.918 263.715 989.974 264.1Z" fill="white"/>
<path d="M1125.48 296.246C1118.31 296.246 1111.13 296.246 1103.95 296.246C1103.89 296.133 1103.84 296.013 1103.78 295.899C1104.36 295.558 1104.89 295.046 1105.51 294.913C1109.27 294.072 1110.16 291.842 1110.1 288.05C1109.85 271.841 1109.97 255.631 1110.03 239.422C1110.04 237.848 1109.57 237.052 1108.1 236.54C1106.62 236.028 1105.23 235.245 1103.81 234.581C1103.85 234.442 1103.89 234.303 1103.93 234.158C1104.37 234.12 1104.81 234.05 1105.25 234.05C1114.36 234.044 1123.47 233.994 1132.57 234.076C1136.24 234.107 1139.76 235.099 1142.91 236.995C1148.76 240.515 1151.23 245.855 1151.18 252.604C1151.11 262.684 1144.5 268.352 1136.46 270.008C1134.51 270.406 1132.5 270.552 1130.51 270.602C1126.88 270.691 1123.25 270.627 1119.52 270.627C1119.48 271.089 1119.42 271.493 1119.42 271.891C1119.41 278.362 1119.45 284.84 1119.39 291.311C1119.38 292.467 1119.64 293.143 1120.81 293.529C1122.05 293.933 1123.22 294.565 1124.41 295.121C1124.84 295.324 1125.24 295.608 1125.65 295.855C1125.6 295.981 1125.54 296.114 1125.48 296.246ZM1119.51 268.675C1122.41 268.675 1125.24 268.776 1128.06 268.656C1133.44 268.422 1137.03 265.515 1139.33 260.807C1141.56 256.251 1141.89 251.479 1140.5 246.683C1139.13 241.994 1136.46 238.209 1131.61 236.521C1127.69 235.156 1123.61 235.896 1119.51 235.807C1119.51 246.835 1119.51 257.66 1119.51 268.675Z" fill="white"/>
<rect x="834.518" y="266.679" width="110.125" height="110.125" transform="rotate(135.021 834.518 266.679)" stroke="white" stroke-width="6"/>
<rect x="742.248" y="358.881" width="110.125" height="110.125" transform="rotate(135.021 742.248 358.881)" fill="white" stroke="white" stroke-width="6"/>
<rect x="649.979" y="451.084" width="110.125" height="110.125" transform="rotate(135.021 649.979 451.084)" fill="white" stroke="white" stroke-width="6"/>
<rect x="742.315" y="174.41" width="110.125" height="110.125" transform="rotate(135.021 742.315 174.41)" fill="white" stroke="white" stroke-width="6"/>
<rect x="650.045" y="266.612" width="110.125" height="110.125" transform="rotate(135.021 650.045 266.612)" stroke="white" stroke-width="6"/>
<rect x="557.776" y="358.815" width="110.125" height="110.125" transform="rotate(135.021 557.776 358.815)" fill="white" stroke="white" stroke-width="6"/>
<rect x="650.112" y="82.1401" width="110.125" height="110.125" transform="rotate(135.021 650.112 82.1401)" stroke="white" stroke-width="6"/>
<rect x="557.843" y="174.343" width="110.125" height="110.125" transform="rotate(135.021 557.843 174.343)" stroke="white" stroke-width="6"/>
<rect x="465.574" y="266.546" width="110.125" height="110.125" transform="rotate(135.021 465.574 266.546)" stroke="white" stroke-width="6"/>
<path d="M241.757 267.483C241.573 279.66 236.587 289.285 225.908 295.345C211.493 303.522 193.811 298.246 185.394 283.566C182.082 277.79 180.901 271.502 181.419 264.904C182.386 252.632 188.237 243.507 199.435 238.249C212.89 231.929 229.269 237.149 236.986 249.921C240.385 255.551 241.706 260.449 241.757 267.483ZM231.785 267.015C231.677 265.694 231.589 264.07 231.405 262.452C230.66 255.981 228.758 249.927 224.719 244.701C221.648 240.726 217.812 237.863 212.662 237.472C206.311 236.991 201.723 240.265 198.115 245.08C193.514 251.223 191.675 258.338 191.441 265.89C191.176 274.447 192.933 282.51 198.058 289.556C201.135 293.79 205.104 296.862 210.52 297.241C216.656 297.677 221.174 294.58 224.751 289.948C229.882 283.294 231.488 275.502 231.785 267.015Z" fill="white"/>
<path d="M43.9551 236.201C46.6219 236.201 49.295 236.201 51.9618 236.201C53.9651 236.201 55.9683 236.264 57.9653 236.175C59.1091 236.125 59.76 236.542 60.3919 237.477C68.4934 249.516 76.6329 261.523 84.766 273.542C86.7945 276.538 88.8231 279.533 91.1929 282.465C91.2308 282.048 91.3066 281.637 91.3066 281.22C91.3129 268.847 91.294 256.473 91.3382 244.106C91.3445 242.988 90.9274 242.4 89.9922 241.882C87.4644 240.485 84.9872 239 82.4973 237.54C82.0613 237.288 81.6631 236.965 81.3345 236.371C88.5577 236.371 95.7744 236.371 103.516 236.371C102.669 236.984 102.22 237.364 101.721 237.661C99.3197 239.07 96.9309 240.492 94.4916 241.825C93.392 242.425 92.9939 243.146 92.9939 244.435C93.0445 261.757 93.0255 279.078 93.0255 296.4C93.0255 297.019 93.0255 297.645 93.0255 298.232C90.5672 298.839 90.3397 298.757 89.0316 296.823C77.3912 279.628 65.7445 262.439 54.0978 245.244C53.8956 244.947 53.6681 244.675 53.2826 244.151C53.2194 244.789 53.1499 245.174 53.1499 245.554C53.1435 260.556 53.1562 275.565 53.1246 290.567C53.1246 291.641 53.4153 292.267 54.3885 292.798C56.9289 294.175 59.3935 295.679 61.8833 297.145C62.3383 297.411 62.7428 297.758 63.0271 298.378C55.8103 298.378 48.5936 298.378 40.8965 298.378C41.6548 297.803 42.0782 297.411 42.5648 297.12C45.1368 295.591 47.7531 294.144 50.2808 292.539C50.818 292.197 51.3362 291.338 51.3362 290.719C51.3931 274.819 51.3931 258.919 51.3362 243.019C51.3362 242.387 50.8054 241.56 50.2745 241.168C48.543 239.898 46.6851 238.792 44.8904 237.604C44.4859 237.332 44.132 236.984 43.7592 236.668C43.8287 236.523 43.8919 236.365 43.9551 236.201Z" fill="white"/>
<path d="M154.187 298.372C146.989 298.372 139.791 298.372 132.587 298.372C132.537 298.24 132.486 298.113 132.436 297.98C133.131 297.62 133.801 297.209 134.521 296.906C138.856 295.048 138.862 295.055 138.862 290.302C138.862 273.505 138.843 256.715 138.894 239.917C138.9 238.502 138.565 237.965 137.074 238.022C134.18 238.129 131.285 238.097 128.391 238.034C127.216 238.009 126.489 238.382 125.838 239.412C123.064 243.81 120.182 248.152 117.338 252.506C117.073 252.91 116.757 253.283 116.46 253.669C116.321 253.618 116.182 253.561 116.043 253.511C116.195 252.417 116.321 251.318 116.504 250.224C117.237 245.927 118.015 241.636 118.729 237.339C118.906 236.277 119.544 236.189 120.422 236.189C127.582 236.208 134.742 236.202 141.902 236.202C149.959 236.202 158.01 236.227 166.068 236.176C167.325 236.17 167.862 236.417 168.083 237.819C168.836 242.591 169.802 247.324 170.668 252.076C170.757 252.55 170.731 253.049 170.763 253.536C170.63 253.593 170.498 253.643 170.365 253.7C170.011 253.233 169.625 252.79 169.309 252.297C166.573 248.057 163.824 243.829 161.145 239.551C160.45 238.445 159.641 237.984 158.32 238.028C155.375 238.116 152.424 238.085 149.479 238.041C148.474 238.028 148.108 238.344 148.108 239.406C148.139 257.625 148.12 275.837 148.177 294.056C148.177 294.574 148.809 295.288 149.327 295.566C150.97 296.426 152.702 297.115 154.396 297.873C154.32 298.037 154.257 298.202 154.187 298.372Z" fill="white"/>
<path d="M21.9901 298.404C14.8175 298.404 7.64494 298.404 0.472383 298.404C0.415508 298.29 0.358633 298.17 0.301758 298.056C0.826271 297.747 1.31919 297.279 1.88794 297.146C5.8123 296.243 6.76654 293.911 6.69702 289.917C6.40633 273.752 6.558 257.58 6.60223 241.415C6.60855 240.057 6.24202 239.305 4.92758 238.831C3.35404 238.262 1.85002 237.459 0.320716 236.758C0.364952 236.619 0.409188 236.48 0.453424 236.341C7.63862 236.341 14.8238 236.341 22.009 236.341C22.0532 236.461 22.0975 236.581 22.1354 236.695C20.9537 237.27 19.8225 238.047 18.5712 238.376C16.2646 238.989 15.7844 240.322 15.797 242.603C15.9108 259.558 15.8728 276.52 15.8286 293.475C15.8286 294.669 16.2015 295.251 17.2884 295.674C18.9567 296.325 20.5555 297.153 22.186 297.905C22.1291 298.075 22.0596 298.24 21.9901 298.404Z" fill="white"/>
</svg>
