<svg width="415" height="46" viewBox="0 0 415 46" fill="none" xmlns="http://www.w3.org/2000/svg">
<path d="M5.50906 3.7251L13.8341 3.5001H18.5591C20.9591 3.5001 23.0291 4.0701 24.7691 5.2101C26.5091 6.3201 27.3791 8.1051 27.3791 10.5651C27.3791 13.0251 26.9591 15.1101 26.119 16.8201C25.3091 18.5301 24.1991 19.8351 22.7891 20.7351C20.1191 22.4451 17.0741 23.3001 13.6541 23.3001H10.6841L9.37906 31.4451L13.2491 32.3001L12.7991 35.0001H0.514069L0.96405 32.3001L4.87906 31.4001L8.74905 7.1001L5.10406 6.2001L5.50906 3.7251ZM13.2491 7.1001L11.2241 19.7001H14.2391C17.2391 19.7001 19.3841 18.9501 20.6741 17.4501C21.9941 15.9201 22.6541 13.9851 22.6541 11.6451C22.6541 9.8451 22.0541 8.6151 20.8541 7.9551C19.8341 7.3851 18.7991 7.1001 17.7491 7.1001H13.2491Z" fill="white"/>
<path d="M48.4907 11.1501L47.1407 17.9001H44.2157V14.7501C43.2857 14.7501 42.3558 15.1551 41.4258 15.9651C40.5258 16.7751 39.7607 17.7501 39.1307 18.8901C37.8107 21.2901 36.8507 23.4051 36.2507 25.2351L35.8907 26.4501L34.4507 35.0001H30.1758L33.4607 14.7501L29.6357 13.8501L30.0407 11.3751L38.3207 11.1501L36.5657 18.9801C37.5257 16.7001 38.7107 14.8401 40.1207 13.4001C40.7807 12.7101 41.6507 12.0951 42.7307 11.5551C43.8407 10.9851 45.0107 10.7001 46.2407 10.7001C46.9007 10.7001 47.6507 10.8501 48.4907 11.1501Z" fill="white"/>
<path d="M69.3524 16.5501C69.3524 19.1301 67.8825 21.2301 64.9425 22.8501C62.0325 24.4401 58.2374 25.2351 53.5574 25.2351C53.4674 25.8951 53.4225 26.5401 53.4225 27.1701C53.4225 30.2901 55.0724 31.8501 58.3724 31.8501C59.3324 31.8501 60.4274 31.6851 61.6574 31.3551C62.8874 31.0251 63.8775 30.6801 64.6275 30.3201L65.7525 29.8251L67.1024 32.1201C66.7424 32.3601 66.2475 32.6751 65.6175 33.0651C64.9875 33.4251 63.7875 33.9201 62.0175 34.5501C60.2475 35.1501 58.5825 35.4501 57.0225 35.4501C54.5625 35.4501 52.5974 34.7301 51.1274 33.2901C49.6574 31.8501 48.9225 29.9451 48.9225 27.5751C48.9225 22.8351 50.1825 18.8451 52.7025 15.6051C55.2525 12.3351 58.3275 10.7001 61.9275 10.7001C64.2075 10.7001 66.0074 11.2401 67.3274 12.3201C68.6774 13.3701 69.3524 14.7801 69.3524 16.5501ZM53.9625 22.0851C57.1725 22.0851 59.8275 21.6051 61.9275 20.6451C64.0275 19.6851 65.0774 18.4701 65.0774 17.0001C65.0774 15.0501 63.9525 14.0751 61.7025 14.0751C60.0525 14.0751 58.4925 14.8251 57.0225 16.3251C55.5525 17.8251 54.5325 19.7451 53.9625 22.0851Z" fill="white"/>
<path d="M76.0533 27.8001L76.0982 31.6251C76.9982 31.9851 78.1532 32.1651 79.5632 32.1651C81.0032 32.1651 82.1732 31.8501 83.0732 31.2201C83.9732 30.5901 84.4232 29.7801 84.4232 28.7901C84.4232 27.8001 84.0782 27.0051 83.3882 26.4051C82.7282 25.8051 81.9032 25.2801 80.9132 24.8301C79.9532 24.3801 78.9783 23.8851 77.9883 23.3451C77.0283 22.8051 76.2032 22.0851 75.5132 21.1851C74.8532 20.2551 74.5232 19.1601 74.5232 17.9001C74.5232 15.5301 75.3782 13.7451 77.0882 12.5451C78.7982 11.3151 80.9733 10.7001 83.6133 10.7001C85.6233 10.7001 87.5282 10.9701 89.3282 11.5101L90.2732 11.8251L89.1932 17.9001H86.2682L85.9982 14.3901C85.3382 14.1201 84.3632 13.9851 83.0732 13.9851C81.7832 13.9851 80.7482 14.2551 79.9682 14.7951C79.1882 15.3351 78.7982 16.0851 78.7982 17.0451C78.7982 17.9751 79.1432 18.7701 79.8332 19.4301C80.5232 20.0601 81.3632 20.6151 82.3532 21.0951C83.3432 21.5751 84.3332 22.0851 85.3232 22.6251C86.3432 23.1651 87.1982 23.8701 87.8882 24.7401C88.5782 25.6101 88.9232 26.6301 88.9232 27.8001C88.9232 30.1401 87.9932 32.0001 86.1332 33.3801C84.3032 34.7601 81.8582 35.4501 78.7982 35.4501C76.5482 35.4501 74.5982 35.1801 72.9482 34.6401L72.0482 34.3251L73.1282 27.8001H76.0533Z" fill="white"/>
<path d="M97.8712 27.8001L97.9162 31.6251C98.8162 31.9851 99.9712 32.1651 101.381 32.1651C102.821 32.1651 103.991 31.8501 104.891 31.2201C105.791 30.5901 106.241 29.7801 106.241 28.7901C106.241 27.8001 105.896 27.0051 105.206 26.4051C104.546 25.8051 103.721 25.2801 102.731 24.8301C101.771 24.3801 100.796 23.8851 99.8062 23.3451C98.8462 22.8051 98.0212 22.0851 97.3312 21.1851C96.6712 20.2551 96.3412 19.1601 96.3412 17.9001C96.3412 15.5301 97.1962 13.7451 98.9062 12.5451C100.616 11.3151 102.791 10.7001 105.431 10.7001C107.441 10.7001 109.346 10.9701 111.146 11.5101L112.091 11.8251L111.011 17.9001H108.086L107.816 14.3901C107.156 14.1201 106.181 13.9851 104.891 13.9851C103.601 13.9851 102.566 14.2551 101.786 14.7951C101.006 15.3351 100.616 16.0851 100.616 17.0451C100.616 17.9751 100.961 18.7701 101.651 19.4301C102.341 20.0601 103.181 20.6151 104.171 21.0951C105.161 21.5751 106.151 22.0851 107.141 22.6251C108.161 23.1651 109.016 23.8701 109.706 24.7401C110.396 25.6101 110.741 26.6301 110.741 27.8001C110.741 30.1401 109.811 32.0001 107.951 33.3801C106.121 34.7601 103.676 35.4501 100.616 35.4501C98.3662 35.4501 96.4162 35.1801 94.7662 34.6401L93.8662 34.3251L94.9462 27.8001H97.8712Z" fill="white"/>
<path d="M150.955 16.5501C150.955 19.1301 149.485 21.2301 146.545 22.8501C143.635 24.4401 139.84 25.2351 135.16 25.2351C135.07 25.8951 135.025 26.5401 135.025 27.1701C135.025 30.2901 136.675 31.8501 139.975 31.8501C140.935 31.8501 142.03 31.6851 143.26 31.3551C144.49 31.0251 145.48 30.6801 146.23 30.3201L147.355 29.8251L148.705 32.1201C148.345 32.3601 147.85 32.6751 147.22 33.0651C146.59 33.4251 145.39 33.9201 143.62 34.5501C141.85 35.1501 140.185 35.4501 138.625 35.4501C136.165 35.4501 134.2 34.7301 132.73 33.2901C131.26 31.8501 130.525 29.9451 130.525 27.5751C130.525 22.8351 131.785 18.8451 134.305 15.6051C136.855 12.3351 139.93 10.7001 143.53 10.7001C145.81 10.7001 147.61 11.2401 148.93 12.3201C150.28 13.3701 150.955 14.7801 150.955 16.5501ZM135.565 22.0851C138.775 22.0851 141.43 21.6051 143.53 20.6451C145.63 19.6851 146.68 18.4701 146.68 17.0001C146.68 15.0501 145.555 14.0751 143.305 14.0751C141.655 14.0751 140.095 14.8251 138.625 16.3251C137.155 17.8251 136.135 19.7451 135.565 22.0851Z" fill="white"/>
<path d="M170.616 35.0001L173.136 19.4751C173.256 18.5751 173.316 17.9151 173.316 17.4951C173.316 15.5151 172.536 14.5251 170.976 14.5251C169.896 14.5251 168.816 14.9601 167.736 15.8301C166.686 16.6701 165.801 17.6901 165.081 18.8901C163.551 21.3801 162.441 23.6301 161.751 25.6401L161.346 26.9001L160.041 35.0001H155.766L159.006 14.7501L155.226 13.8501L155.631 11.3751L163.866 11.1501L161.841 19.8801C162.291 18.8901 162.906 17.8101 163.686 16.6401C164.496 15.4701 165.276 14.5101 166.026 13.7601C166.806 12.9801 167.796 12.2751 168.996 11.6451C170.226 11.0151 171.486 10.7001 172.776 10.7001C176.106 10.7001 177.771 12.5451 177.771 16.2351C177.771 16.9551 177.696 17.8101 177.546 18.8001L175.476 31.4001L179.301 32.0751L178.896 34.5501L170.616 35.0001Z" fill="white"/>
<path d="M196.385 30.9501L197.105 33.3801C194.855 34.7601 192.89 35.4501 191.21 35.4501C188.18 35.4501 186.665 33.6651 186.665 30.0951C186.665 29.2251 186.755 28.2651 186.935 27.2151L188.915 14.7501H184.46L184.955 11.8251L189.455 11.3751L190.355 5.7051L194.81 4.8051L193.73 11.3751H199.94L199.4 14.7501H193.19L191.255 26.7651C191.075 27.9351 190.985 28.9101 190.985 29.6901C190.985 30.4401 191.12 30.9951 191.39 31.3551C191.66 31.6851 192.035 31.8501 192.515 31.8501C193.415 31.8501 194.495 31.6251 195.755 31.1751L196.385 30.9501Z" fill="white"/>
<path d="M221.727 16.5501C221.727 19.1301 220.257 21.2301 217.317 22.8501C214.407 24.4401 210.612 25.2351 205.932 25.2351C205.842 25.8951 205.797 26.5401 205.797 27.1701C205.797 30.2901 207.447 31.8501 210.747 31.8501C211.707 31.8501 212.802 31.6851 214.032 31.3551C215.262 31.0251 216.252 30.6801 217.002 30.3201L218.127 29.8251L219.477 32.1201C219.117 32.3601 218.622 32.6751 217.992 33.0651C217.362 33.4251 216.162 33.9201 214.392 34.5501C212.622 35.1501 210.957 35.4501 209.397 35.4501C206.937 35.4501 204.972 34.7301 203.502 33.2901C202.032 31.8501 201.297 29.9451 201.297 27.5751C201.297 22.8351 202.557 18.8451 205.077 15.6051C207.627 12.3351 210.702 10.7001 214.302 10.7001C216.582 10.7001 218.382 11.2401 219.702 12.3201C221.052 13.3701 221.727 14.7801 221.727 16.5501ZM206.337 22.0851C209.547 22.0851 212.202 21.6051 214.302 20.6451C216.402 19.6851 217.452 18.4701 217.452 17.0001C217.452 15.0501 216.327 14.0751 214.077 14.0751C212.427 14.0751 210.867 14.8251 209.397 16.3251C207.927 17.8251 206.907 19.7451 206.337 22.0851Z" fill="white"/>
<path d="M244.853 11.1501L243.502 17.9001H240.577V14.7501C239.647 14.7501 238.718 15.1551 237.788 15.9651C236.888 16.7751 236.122 17.7501 235.492 18.8901C234.172 21.2901 233.213 23.4051 232.613 25.2351L232.252 26.4501L230.812 35.0001H226.538L229.822 14.7501L225.997 13.8501L226.402 11.3751L234.682 11.1501L232.928 18.9801C233.888 16.7001 235.073 14.8401 236.483 13.4001C237.143 12.7101 238.012 12.0951 239.092 11.5551C240.202 10.9851 241.373 10.7001 242.603 10.7001C243.263 10.7001 244.013 10.8501 244.853 11.1501Z" fill="white"/>
<path d="M272.275 30.9501L272.995 33.3801C270.745 34.7601 268.78 35.4501 267.1 35.4501C264.07 35.4501 262.555 33.6651 262.555 30.0951C262.555 29.2251 262.645 28.2651 262.825 27.2151L264.805 14.7501H260.35L260.845 11.8251L265.345 11.3751L266.245 5.7051L270.7 4.8051L269.62 11.3751H275.83L275.29 14.7501H269.08L267.145 26.7651C266.965 27.9351 266.875 28.9101 266.875 29.6901C266.875 30.4401 267.01 30.9951 267.28 31.3551C267.55 31.6851 267.925 31.8501 268.405 31.8501C269.305 31.8501 270.385 31.6251 271.645 31.1751L272.275 30.9501Z" fill="white"/>
<path d="M285.737 35.4501C283.277 35.4501 281.312 34.6701 279.842 33.1101C278.372 31.5501 277.637 29.4801 277.637 26.9001C277.637 22.1001 278.897 18.2001 281.417 15.2001C283.937 12.2001 287.177 10.7001 291.137 10.7001C293.717 10.7001 295.742 11.4801 297.212 13.0401C298.712 14.6001 299.462 16.6251 299.462 19.1151C299.462 24.0651 298.172 28.0251 295.592 30.9951C293.042 33.9651 289.757 35.4501 285.737 35.4501ZM286.637 31.8501C289.157 31.8501 291.167 30.7101 292.667 28.4301C294.197 26.1201 294.962 23.1951 294.962 19.6551C294.962 16.0851 293.387 14.3001 290.237 14.3001C287.747 14.3001 285.767 15.5151 284.297 17.9451C282.857 20.3451 282.137 23.2551 282.137 26.6751C282.137 28.4151 282.527 29.7201 283.307 30.5901C284.117 31.4301 285.227 31.8501 286.637 31.8501Z" fill="white"/>
<path d="M327.952 11.1501L326.152 19.4301C326.602 18.2601 327.472 16.7601 328.762 14.9301C329.602 13.7601 330.682 12.7701 332.002 11.9601C333.352 11.1201 334.867 10.7001 336.547 10.7001C338.257 10.7001 339.622 11.4801 340.642 13.0401C341.692 14.6001 342.217 16.5201 342.217 18.8001C342.217 23.7501 340.882 27.7701 338.212 30.8601C335.542 33.9201 332.347 35.4501 328.627 35.4501C327.007 35.4501 325.537 35.0901 324.217 34.3701L323.047 41.7501L326.467 42.8751L326.017 45.3501H314.542L314.947 42.8751L318.772 41.7501L323.092 14.7501L319.402 13.8501L319.807 11.3751L327.952 11.1501ZM325.612 26.6751L324.712 31.4001C325.972 31.8501 327.352 32.0751 328.852 32.0751C331.012 32.0751 333.022 30.9651 334.882 28.7451C336.772 26.5251 337.717 23.4351 337.717 19.4751C337.717 18.0951 337.462 16.9251 336.952 15.9651C336.472 15.0051 335.707 14.5251 334.657 14.5251C333.637 14.5251 332.617 14.9451 331.597 15.7851C330.607 16.6251 329.767 17.6301 329.077 18.8001C327.577 21.4101 326.542 23.6151 325.972 25.4151L325.612 26.6751Z" fill="white"/>
<path d="M347.765 35.0001L352.715 3.9501L348.935 3.0501L349.34 0.575097L357.665 0.350098L352.715 31.4001L356.585 32.0751L356.18 34.5501L347.765 35.0001Z" fill="white"/>
<path d="M381.664 31.4001L385.579 32.0751L385.174 34.5501L376.804 35.0001L378.604 26.7201C377.404 29.1201 376.054 31.0701 374.554 32.5701C373.834 33.2901 372.919 33.9501 371.809 34.5501C370.729 35.1501 369.634 35.4501 368.524 35.4501C366.844 35.4501 365.434 34.7001 364.294 33.2001C363.184 31.7001 362.629 29.8251 362.629 27.5751C362.629 22.3551 363.949 18.2451 366.589 15.2451C369.259 12.2151 372.409 10.7001 376.039 10.7001C376.909 10.7001 377.764 10.8201 378.604 11.0601C379.444 11.2701 380.074 11.4801 380.494 11.6901L381.079 12.0501L382.429 11.1501H384.904L381.664 31.4001ZM379.189 19.4751L380.089 14.7501C378.949 14.3001 377.599 14.0751 376.039 14.0751C373.639 14.0751 371.554 15.1701 369.784 17.3601C368.014 19.5201 367.129 22.7001 367.129 26.9001C367.129 28.4301 367.384 29.6001 367.894 30.4101C368.404 31.2201 369.109 31.6251 370.009 31.6251C370.939 31.6251 371.899 31.2051 372.889 30.3651C373.909 29.5251 374.779 28.5201 375.499 27.3501C377.059 24.8001 378.154 22.5951 378.784 20.7351L379.189 19.4751Z" fill="white"/>
<path d="M413.922 13.8501L411.402 14.5701L403.392 33.5151C401.352 38.3451 399.657 41.6001 398.307 43.2801C396.957 44.9601 395.157 45.8001 392.907 45.8001C391.377 45.8001 389.907 45.6201 388.497 45.2601L387.822 45.0801L388.722 42.2001C389.922 42.3501 391.167 42.4251 392.457 42.4251C393.747 42.4251 394.797 42.0201 395.607 41.2101C396.447 40.4001 397.332 38.9151 398.262 36.7551L392.412 14.7051L388.947 13.8501L389.352 11.3751L396.597 11.1501L400.377 27.6651L400.782 30.7251L407.442 14.6601L404.067 13.8501L404.472 11.3751L414.372 11.1501L413.922 13.8501Z" fill="white"/>
<path d="M0.289062 39.5001H413.697V41.7501H0.289062V39.5001Z" fill="white"/>
</svg>
